<?xml version="1.0" standalone="no"?>
 <!DOCTYPE svg PUBLIC "-//W3C//DTD SVG 1.1//EN" 
 "http://www.w3.org/Graphics/SVG/1.1/DTD/svg11.dtd"> 
<svg
  xmlns:svg="http://www.w3.org/2000/svg"
  xmlns="http://www.w3.org/2000/svg"
  xmlns:xlink="http://www.w3.org/1999/xlink"
  version="1.1"
  width="29.700220cm" height="21.000720cm" viewBox="0 0 116930 82680">
<title>SVG Picture created as brkcan01.svg date 2022/09/11 19:53:35 </title>
  <desc>Picture generated by Eeschema-SVG </desc>
<g style="fill:#000000; fill-opacity:1.000000;stroke:#000000; stroke-opacity:1.000000;
stroke-linecap:round; stroke-linejoin:round;"
 transform="translate(0 0) scale(1 1)">
</g>
<g style="fill:#840000; fill-opacity:0.0; 
stroke:#840000; stroke-width:0.000000; stroke-opacity:1; 
stroke-linecap:round; stroke-linejoin:round;">
</g>
<g style="fill:#840000; fill-opacity:0.0; 
stroke:#840000; stroke-width:60.000000; stroke-opacity:1; 
stroke-linecap:round; stroke-linejoin:round;">
<rect x="69685.905512" y="65357.165354" width="42519.685039" height="12598.425197" rx="0.000000" />
<rect x="3937.007874" y="3937.007874" width="109055.984252" height="74805.984252" rx="0.000000" />
<rect x="4724.409449" y="4724.409449" width="107481.181102" height="73231.181102" rx="0.000000" />
<path d="M23622 4724
L23622 3937
" />
<path d="M43307 4724
L43307 3937
" />
<path d="M62992 4724
L62992 3937
" />
<path d="M82677 4724
L82677 3937
" />
<path d="M102362 4724
L102362 3937
" />
<text x="13779.527559" y="4586.614173"
textLength="487.480315" font-size="682.401575" lengthAdjust="spacingAndGlyphs"
text-anchor="start" opacity="0">1</text>
<g class="stroked-text"><desc>1</desc>
<path d="M14199 4562
L13907 4562
" />
<path d="M14053 4562
L14053 4050
L14004 4123
L13955 4172
L13907 4196
" />
</g><text x="33464.566929" y="4586.614173"
textLength="547.440945" font-size="682.401575" lengthAdjust="spacingAndGlyphs"
text-anchor="start" opacity="0">2</text>
<g class="stroked-text"><desc>2</desc>
<path d="M33592 4099
L33616 4074
L33665 4050
L33787 4050
L33835 4074
L33860 4099
L33884 4147
L33884 4196
L33860 4269
L33567 4562
L33884 4562
" />
</g><text x="53149.606299" y="4586.614173"
textLength="547.440945" font-size="682.401575" lengthAdjust="spacingAndGlyphs"
text-anchor="start" opacity="0">3</text>
<g class="stroked-text"><desc>3</desc>
<path d="M53252 4050
L53569 4050
L53398 4245
L53472 4245
L53520 4269
L53545 4294
L53569 4342
L53569 4464
L53545 4513
L53520 4537
L53472 4562
L53325 4562
L53277 4537
L53252 4513
" />
</g><text x="72834.645669" y="4586.614173"
textLength="547.440945" font-size="682.401575" lengthAdjust="spacingAndGlyphs"
text-anchor="start" opacity="0">4</text>
<g class="stroked-text"><desc>4</desc>
<path d="M73205 4221
L73205 4562
" />
<path d="M73083 4026
L72962 4391
L73278 4391
" />
</g><text x="92519.685039" y="4586.614173"
textLength="547.440945" font-size="682.401575" lengthAdjust="spacingAndGlyphs"
text-anchor="start" opacity="0">5</text>
<g class="stroked-text"><desc>5</desc>
<path d="M92915 4050
L92671 4050
L92647 4294
L92671 4269
L92720 4245
L92842 4245
L92890 4269
L92915 4294
L92939 4342
L92939 4464
L92915 4513
L92890 4537
L92842 4562
L92720 4562
L92671 4537
L92647 4513
" />
</g><text x="112204.724409" y="4586.614173"
textLength="547.440945" font-size="682.401575" lengthAdjust="spacingAndGlyphs"
text-anchor="start" opacity="0">6</text>
<g class="stroked-text"><desc>6</desc>
<path d="M112575 4050
L112478 4050
L112429 4074
L112405 4099
L112356 4172
L112332 4269
L112332 4464
L112356 4513
L112380 4537
L112429 4562
L112527 4562
L112575 4537
L112600 4513
L112624 4464
L112624 4342
L112600 4294
L112575 4269
L112527 4245
L112429 4245
L112380 4269
L112356 4294
L112332 4342
" />
</g><path d="M23622 77955
L23622 78742
" />
<path d="M43307 77955
L43307 78742
" />
<path d="M62992 77955
L62992 78742
" />
<path d="M82677 77955
L82677 78742
" />
<path d="M102362 77955
L102362 78742
" />
<text x="13779.527559" y="78605.196850"
textLength="547.440945" font-size="682.401575" lengthAdjust="spacingAndGlyphs"
text-anchor="start" opacity="0">1</text>
<g class="stroked-text"><desc>1</desc>
<path d="M14199 78580
L13907 78580
" />
<path d="M14053 78580
L14053 78068
L14004 78142
L13955 78190
L13907 78215
" />
</g><text x="33464.566929" y="78605.196850"
textLength="547.440945" font-size="682.401575" lengthAdjust="spacingAndGlyphs"
text-anchor="start" opacity="0">2</text>
<g class="stroked-text"><desc>2</desc>
<path d="M33592 78117
L33616 78093
L33665 78068
L33787 78068
L33835 78093
L33860 78117
L33884 78166
L33884 78215
L33860 78288
L33567 78580
L33884 78580
" />
</g><text x="53149.606299" y="78605.196850"
textLength="547.440945" font-size="682.401575" lengthAdjust="spacingAndGlyphs"
text-anchor="start" opacity="0">3</text>
<g class="stroked-text"><desc>3</desc>
<path d="M53252 78068
L53569 78068
L53398 78263
L53472 78263
L53520 78288
L53545 78312
L53569 78361
L53569 78483
L53545 78532
L53520 78556
L53472 78580
L53325 78580
L53277 78556
L53252 78532
" />
</g><text x="72834.645669" y="78605.196850"
textLength="547.440945" font-size="682.401575" lengthAdjust="spacingAndGlyphs"
text-anchor="start" opacity="0">4</text>
<g class="stroked-text"><desc>4</desc>
<path d="M73205 78239
L73205 78580
" />
<path d="M73083 78044
L72962 78410
L73278 78410
" />
</g><text x="92519.685039" y="78605.196850"
textLength="547.440945" font-size="682.401575" lengthAdjust="spacingAndGlyphs"
text-anchor="start" opacity="0">5</text>
<g class="stroked-text"><desc>5</desc>
<path d="M92915 78068
L92671 78068
L92647 78312
L92671 78288
L92720 78263
L92842 78263
L92890 78288
L92915 78312
L92939 78361
L92939 78483
L92915 78532
L92890 78556
L92842 78580
L92720 78580
L92671 78556
L92647 78532
" />
</g><text x="112204.724409" y="78605.196850"
textLength="547.440945" font-size="682.401575" lengthAdjust="spacingAndGlyphs"
text-anchor="start" opacity="0">6</text>
<g class="stroked-text"><desc>6</desc>
<path d="M112575 78068
L112478 78068
L112429 78093
L112405 78117
L112356 78190
L112332 78288
L112332 78483
L112356 78532
L112380 78556
L112429 78580
L112527 78580
L112575 78556
L112600 78532
L112624 78483
L112624 78361
L112600 78312
L112575 78288
L112527 78263
L112429 78263
L112380 78288
L112356 78312
L112332 78361
" />
</g><path d="M3937 23622
L4724 23622
" />
<path d="M3937 43307
L4724 43307
" />
<path d="M3937 62992
L4724 62992
" />
<text x="4330.708661" y="14035.433071"
textLength="498.700787" font-size="682.401575" lengthAdjust="spacingAndGlyphs"
text-anchor="middle" opacity="0">A</text>
<g class="stroked-text"><desc>A</desc>
<path d="M4208 13864
L4452 13864
" />
<path d="M4160 14011
L4330 13499
L4501 14011
" />
</g><text x="4330.708661" y="33720.472441"
textLength="571.811024" font-size="682.401575" lengthAdjust="spacingAndGlyphs"
text-anchor="middle" opacity="0">B</text>
<g class="stroked-text"><desc>B</desc>
<path d="M4367 33427
L4440 33452
L4464 33476
L4489 33525
L4489 33598
L4464 33647
L4440 33671
L4391 33696
L4196 33696
L4196 33184
L4367 33184
L4415 33208
L4440 33233
L4464 33281
L4464 33330
L4440 33379
L4415 33403
L4367 33427
L4196 33427
" />
</g><text x="4330.708661" y="53405.511811"
textLength="571.811024" font-size="682.401575" lengthAdjust="spacingAndGlyphs"
text-anchor="middle" opacity="0">C</text>
<g class="stroked-text"><desc>C</desc>
<path d="M4489 53332
L4464 53356
L4391 53381
L4342 53381
L4269 53356
L4221 53307
L4196 53259
L4172 53161
L4172 53088
L4196 52991
L4221 52942
L4269 52893
L4342 52869
L4391 52869
L4464 52893
L4489 52918
" />
</g><text x="4330.708661" y="73090.551181"
textLength="571.811024" font-size="682.401575" lengthAdjust="spacingAndGlyphs"
text-anchor="middle" opacity="0">D</text>
<g class="stroked-text"><desc>D</desc>
<path d="M4196 73066
L4196 72554
L4318 72554
L4391 72578
L4440 72627
L4464 72676
L4489 72773
L4489 72846
L4464 72944
L4440 72993
L4391 73041
L4318 73066
L4196 73066
" />
</g><path d="M112992 23622
L112205 23622
" />
<path d="M112992 43307
L112205 43307
" />
<path d="M112992 62992
L112205 62992
" />
<text x="112599.291339" y="14035.433071"
textLength="498.700787" font-size="682.401575" lengthAdjust="spacingAndGlyphs"
text-anchor="middle" opacity="0">A</text>
<g class="stroked-text"><desc>A</desc>
<path d="M112477 13864
L112721 13864
" />
<path d="M112428 14011
L112599 13499
L112769 14011
" />
</g><text x="112599.291339" y="33720.472441"
textLength="571.811024" font-size="682.401575" lengthAdjust="spacingAndGlyphs"
text-anchor="middle" opacity="0">B</text>
<g class="stroked-text"><desc>B</desc>
<path d="M112635 33427
L112708 33452
L112733 33476
L112757 33525
L112757 33598
L112733 33647
L112708 33671
L112660 33696
L112465 33696
L112465 33184
L112635 33184
L112684 33208
L112708 33233
L112733 33281
L112733 33330
L112708 33379
L112684 33403
L112635 33427
L112465 33427
" />
</g><text x="112599.291339" y="53405.511811"
textLength="571.811024" font-size="682.401575" lengthAdjust="spacingAndGlyphs"
text-anchor="middle" opacity="0">C</text>
<g class="stroked-text"><desc>C</desc>
<path d="M112757 53332
L112733 53356
L112660 53381
L112611 53381
L112538 53356
L112489 53307
L112465 53259
L112440 53161
L112440 53088
L112465 52991
L112489 52942
L112538 52893
L112611 52869
L112660 52869
L112733 52893
L112757 52918
" />
</g><text x="112599.291339" y="73090.551181"
textLength="571.811024" font-size="682.401575" lengthAdjust="spacingAndGlyphs"
text-anchor="middle" opacity="0">D</text>
<g class="stroked-text"><desc>D</desc>
<path d="M112465 73066
L112465 72554
L112587 72554
L112660 72578
L112708 72627
L112733 72676
L112757 72773
L112757 72846
L112733 72944
L112708 72993
L112660 73041
L112587 73066
L112465 73066
" />
</g><text x="78741.023622" y="76321.732283"
textLength="2759.645669" font-size="787.401575" lengthAdjust="spacingAndGlyphs"
text-anchor="start" opacity="0">Date: </text>
<g class="stroked-text"><desc>Date: </desc>
<path d="M78911 76293
L78911 75703
L79052 75703
L79136 75731
L79192 75787
L79220 75843
L79249 75956
L79249 76040
L79220 76152
L79192 76209
L79136 76265
L79052 76293
L78911 76293
" />
<path d="M79755 76293
L79755 75984
L79727 75928
L79670 75899
L79558 75899
L79502 75928
" />
<path d="M79755 76265
L79699 76293
L79558 76293
L79502 76265
L79474 76209
L79474 76152
L79502 76096
L79558 76068
L79699 76068
L79755 76040
" />
<path d="M79952 75899
L80177 75899
" />
<path d="M80036 75703
L80036 76209
L80064 76265
L80120 76293
L80177 76293
" />
<path d="M80598 76265
L80542 76293
L80430 76293
L80373 76265
L80345 76209
L80345 75984
L80373 75928
L80430 75899
L80542 75899
L80598 75928
L80627 75984
L80627 76040
L80345 76096
" />
<path d="M80880 76237
L80908 76265
L80880 76293
L80852 76265
L80880 76237
L80880 76293
" />
<path d="M80880 75928
L80908 75956
L80880 75984
L80852 75956
L80880 75928
L80880 75984
" />
</g><path d="M69685 76577
L112205 76577
" />
<text x="70079.606299" y="77424.094488"
textLength="21826.023622" font-size="787.401575" lengthAdjust="spacingAndGlyphs"
text-anchor="start" opacity="0">KiCad E.D.A.  eeschema 6.0.5+dfsg-1~bpo11+1</text>
<g class="stroked-text"><desc>KiCad E.D.A.  eeschema 6.0.5+dfsg-1~bpo11+1</desc>
<path d="M70250 77395
L70250 76805
" />
<path d="M70587 77395
L70334 77058
" />
<path d="M70587 76805
L70250 77142
" />
<path d="M70840 77395
L70840 77002
" />
<path d="M70840 76805
L70812 76833
L70840 76861
L70868 76833
L70840 76805
L70840 76861
" />
<path d="M71459 77339
L71431 77367
L71346 77395
L71290 77395
L71206 77367
L71150 77311
L71121 77255
L71093 77142
L71093 77058
L71121 76946
L71150 76889
L71206 76833
L71290 76805
L71346 76805
L71431 76833
L71459 76861
" />
<path d="M71965 77395
L71965 77086
L71937 77030
L71881 77002
L71768 77002
L71712 77030
" />
<path d="M71965 77367
L71909 77395
L71768 77395
L71712 77367
L71684 77311
L71684 77255
L71712 77199
L71768 77170
L71909 77170
L71965 77142
" />
<path d="M72499 77395
L72499 76805
" />
<path d="M72499 77367
L72443 77395
L72331 77395
L72274 77367
L72246 77339
L72218 77283
L72218 77114
L72246 77058
L72274 77030
L72331 77002
L72443 77002
L72499 77030
" />
<path d="M73231 77086
L73427 77086
" />
<path d="M73512 77395
L73231 77395
L73231 76805
L73512 76805
" />
<path d="M73765 77339
L73793 77367
L73765 77395
L73737 77367
L73765 77339
L73765 77395
" />
<path d="M74046 77395
L74046 76805
L74187 76805
L74271 76833
L74327 76889
L74355 76946
L74384 77058
L74384 77142
L74355 77255
L74327 77311
L74271 77367
L74187 77395
L74046 77395
" />
<path d="M74637 77339
L74665 77367
L74637 77395
L74609 77367
L74637 77339
L74637 77395
" />
<path d="M74890 77227
L75171 77227
" />
<path d="M74834 77395
L75030 76805
L75227 77395
" />
<path d="M75424 77339
L75452 77367
L75424 77395
L75396 77367
L75424 77339
L75424 77395
" />
<path d="M76830 77367
L76774 77395
L76661 77395
L76605 77367
L76577 77311
L76577 77086
L76605 77030
L76661 77002
L76774 77002
L76830 77030
L76858 77086
L76858 77142
L76577 77199
" />
<path d="M77336 77367
L77280 77395
L77168 77395
L77111 77367
L77083 77311
L77083 77086
L77111 77030
L77168 77002
L77280 77002
L77336 77030
L77364 77086
L77364 77142
L77083 77199
" />
<path d="M77589 77367
L77646 77395
L77758 77395
L77814 77367
L77842 77311
L77842 77283
L77814 77227
L77758 77199
L77674 77199
L77618 77170
L77589 77114
L77589 77086
L77618 77030
L77674 77002
L77758 77002
L77814 77030
" />
<path d="M78349 77367
L78292 77395
L78180 77395
L78124 77367
L78096 77339
L78067 77283
L78067 77114
L78096 77058
L78124 77030
L78180 77002
L78292 77002
L78349 77030
" />
<path d="M78602 77395
L78602 76805
" />
<path d="M78855 77395
L78855 77086
L78827 77030
L78771 77002
L78686 77002
L78630 77030
L78602 77058
" />
<path d="M79361 77367
L79305 77395
L79192 77395
L79136 77367
L79108 77311
L79108 77086
L79136 77030
L79192 77002
L79305 77002
L79361 77030
L79389 77086
L79389 77142
L79108 77199
" />
<path d="M79642 77395
L79642 77002
" />
<path d="M79642 77058
L79670 77030
L79727 77002
L79811 77002
L79867 77030
L79895 77086
L79895 77395
" />
<path d="M79895 77086
L79923 77030
L79980 77002
L80064 77002
L80120 77030
L80148 77086
L80148 77395
" />
<path d="M80683 77395
L80683 77086
L80655 77030
L80598 77002
L80486 77002
L80430 77030
" />
<path d="M80683 77367
L80627 77395
L80486 77395
L80430 77367
L80402 77311
L80402 77255
L80430 77199
L80486 77170
L80627 77170
L80683 77142
" />
<path d="M81667 76805
L81555 76805
L81498 76833
L81470 76861
L81414 76946
L81386 77058
L81386 77283
L81414 77339
L81442 77367
L81498 77395
L81611 77395
L81667 77367
L81695 77339
L81723 77283
L81723 77142
L81695 77086
L81667 77058
L81611 77030
L81498 77030
L81442 77058
L81414 77086
L81386 77142
" />
<path d="M81976 77339
L82004 77367
L81976 77395
L81948 77367
L81976 77339
L81976 77395
" />
<path d="M82370 76805
L82426 76805
L82483 76833
L82511 76861
L82539 76917
L82567 77030
L82567 77170
L82539 77283
L82511 77339
L82483 77367
L82426 77395
L82370 77395
L82314 77367
L82286 77339
L82258 77283
L82229 77170
L82229 77030
L82258 76917
L82286 76861
L82314 76833
L82370 76805
" />
<path d="M82820 77339
L82848 77367
L82820 77395
L82792 77367
L82820 77339
L82820 77395
" />
<path d="M83382 76805
L83101 76805
L83073 77086
L83101 77058
L83157 77030
L83298 77030
L83354 77058
L83382 77086
L83411 77142
L83411 77283
L83382 77339
L83354 77367
L83298 77395
L83157 77395
L83101 77367
L83073 77339
" />
<path d="M83664 77170
L84114 77170
" />
<path d="M83889 77395
L83889 76946
" />
<path d="M84648 77395
L84648 76805
" />
<path d="M84648 77367
L84592 77395
L84479 77395
L84423 77367
L84395 77339
L84367 77283
L84367 77114
L84395 77058
L84423 77030
L84479 77002
L84592 77002
L84648 77030
" />
<path d="M84845 77002
L85070 77002
" />
<path d="M84929 77395
L84929 76889
L84957 76833
L85013 76805
L85070 76805
" />
<path d="M85238 77367
L85295 77395
L85407 77395
L85463 77367
L85492 77311
L85492 77283
L85463 77227
L85407 77199
L85323 77199
L85267 77170
L85238 77114
L85238 77086
L85267 77030
L85323 77002
L85407 77002
L85463 77030
" />
<path d="M85998 77002
L85998 77480
L85970 77536
L85941 77564
L85885 77592
L85801 77592
L85745 77564
" />
<path d="M85998 77367
L85941 77395
L85829 77395
L85773 77367
L85745 77339
L85717 77283
L85717 77114
L85745 77058
L85773 77030
L85829 77002
L85941 77002
L85998 77030
" />
<path d="M86279 77170
L86729 77170
" />
<path d="M87319 77395
L86982 77395
" />
<path d="M87151 77395
L87151 76805
L87094 76889
L87038 76946
L86982 76974
" />
<path d="M87488 77170
L87516 77142
L87573 77114
L87685 77170
L87741 77142
L87769 77114
" />
<path d="M87994 77395
L87994 76805
" />
<path d="M87994 77030
L88051 77002
L88163 77002
L88219 77030
L88247 77058
L88276 77114
L88276 77283
L88247 77339
L88219 77367
L88163 77395
L88051 77395
L87994 77367
" />
<path d="M88529 77002
L88529 77592
" />
<path d="M88529 77030
L88585 77002
L88697 77002
L88754 77030
L88782 77058
L88810 77114
L88810 77283
L88782 77339
L88754 77367
L88697 77395
L88585 77395
L88529 77367
" />
<path d="M89147 77395
L89091 77367
L89063 77339
L89035 77283
L89035 77114
L89063 77058
L89091 77030
L89147 77002
L89232 77002
L89288 77030
L89316 77058
L89344 77114
L89344 77283
L89316 77339
L89288 77367
L89232 77395
L89147 77395
" />
<path d="M89907 77395
L89569 77395
" />
<path d="M89738 77395
L89738 76805
L89682 76889
L89625 76946
L89569 76974
" />
<path d="M90469 77395
L90132 77395
" />
<path d="M90300 77395
L90300 76805
L90244 76889
L90188 76946
L90132 76974
" />
<path d="M90722 77170
L91172 77170
" />
<path d="M90947 77395
L90947 76946
" />
<path d="M91763 77395
L91425 77395
" />
<path d="M91594 77395
L91594 76805
L91538 76889
L91481 76946
L91425 76974
" />
</g><path d="M69685 75396
L112205 75396
" />
</g>
<g style="fill:#840000; fill-opacity:0.0; 
stroke:#840000; stroke-width:118.110236; stroke-opacity:1; 
stroke-linecap:round; stroke-linejoin:round;">
<text x="103544.173228" y="76321.732283"
textLength="2337.834646" font-size="787.401575" lengthAdjust="spacingAndGlyphs"
text-anchor="start" opacity="0">Rev: </text>
<g class="stroked-text"><desc>Rev: </desc>
<path d="M104098 76293
L103902 76012
" />
<path d="M103761 76293
L103761 75703
L103986 75703
L104042 75731
L104070 75759
L104098 75815
L104098 75899
L104070 75956
L104042 75984
L103986 76012
L103761 76012
" />
<path d="M104577 76265
L104520 76293
L104408 76293
L104352 76265
L104323 76209
L104323 75984
L104352 75928
L104408 75899
L104520 75899
L104577 75928
L104605 75984
L104605 76040
L104323 76096
" />
<path d="M104802 75899
L104942 76293
L105083 75899
" />
<path d="M105308 76237
L105336 76265
L105308 76293
L105280 76265
L105308 76237
L105308 76293
" />
<path d="M105308 75928
L105336 75956
L105308 75984
L105280 75956
L105308 75928
L105308 75984
" />
</g></g>
<g style="fill:#840000; fill-opacity:0.0; 
stroke:#840000; stroke-width:60.000000; stroke-opacity:1; 
stroke-linecap:round; stroke-linejoin:round;">
<text x="70079.606299" y="76321.732283"
textLength="3781.220472" font-size="787.401575" lengthAdjust="spacingAndGlyphs"
text-anchor="start" opacity="0">Size: A4</text>
<g class="stroked-text"><desc>Size: A4</desc>
<path d="M70222 76265
L70306 76293
L70447 76293
L70503 76265
L70531 76237
L70559 76181
L70559 76124
L70531 76068
L70503 76040
L70447 76012
L70334 75984
L70278 75956
L70250 75928
L70222 75871
L70222 75815
L70250 75759
L70278 75731
L70334 75703
L70475 75703
L70559 75731
" />
<path d="M70812 76293
L70812 75899
" />
<path d="M70812 75703
L70784 75731
L70812 75759
L70840 75731
L70812 75703
L70812 75759
" />
<path d="M71037 75899
L71346 75899
L71037 76293
L71346 76293
" />
<path d="M71796 76265
L71740 76293
L71628 76293
L71571 76265
L71543 76209
L71543 75984
L71571 75928
L71628 75899
L71740 75899
L71796 75928
L71825 75984
L71825 76040
L71543 76096
" />
<path d="M72078 76237
L72106 76265
L72078 76293
L72049 76265
L72078 76237
L72078 76293
" />
<path d="M72078 75928
L72106 75956
L72078 75984
L72049 75956
L72078 75928
L72078 75984
" />
<path d="M72781 76124
L73062 76124
" />
<path d="M72724 76293
L72921 75703
L73118 76293
" />
<path d="M73568 75899
L73568 76293
" />
<path d="M73427 75674
L73287 76096
L73652 76096
" />
</g><text x="103544.173228" y="77424.094488"
textLength="3350.196850" font-size="787.401575" lengthAdjust="spacingAndGlyphs"
text-anchor="start" opacity="0">Id: 1/1</text>
<g class="stroked-text"><desc>Id: 1/1</desc>
<path d="M103714 77395
L103714 76805
" />
<path d="M104249 77395
L104249 76805
" />
<path d="M104249 77367
L104192 77395
L104080 77395
L104024 77367
L103995 77339
L103967 77283
L103967 77114
L103995 77058
L104024 77030
L104080 77002
L104192 77002
L104249 77030
" />
<path d="M104530 77339
L104558 77367
L104530 77395
L104502 77367
L104530 77339
L104530 77395
" />
<path d="M104530 77030
L104558 77058
L104530 77086
L104502 77058
L104530 77030
L104530 77086
" />
<path d="M105570 77395
L105233 77395
" />
<path d="M105402 77395
L105402 76805
L105345 76889
L105289 76946
L105233 76974
" />
<path d="M106245 76777
L105739 77536
" />
<path d="M106751 77395
L106414 77395
" />
<path d="M106583 77395
L106583 76805
L106526 76889
L106470 76946
L106414 76974
" />
</g><path d="M69685 73821
L112205 73821
" />
</g>
<g style="fill:#840000; fill-opacity:0.0; 
stroke:#840000; stroke-width:157.480315; stroke-opacity:1; 
stroke-linecap:round; stroke-linejoin:round;">
<text x="70079.606299" y="74924.094488"
textLength="3705.511811" font-size="1049.842520" lengthAdjust="spacingAndGlyphs"
text-anchor="start" opacity="0">Title: </text>
<g class="stroked-text"><desc>Title: </desc>
<path d="M70360 74099
L70810 74099
" />
<path d="M70486 74886
L70585 74099
" />
<path d="M70974 74886
L71039 74361
" />
<path d="M71072 74099
L71030 74136
L71063 74174
L71105 74136
L71072 74099
L71063 74174
" />
<path d="M71302 74361
L71602 74361
" />
<path d="M71447 74099
L71363 74774
L71391 74849
L71461 74886
L71536 74886
" />
<path d="M71911 74886
L71841 74849
L71812 74774
L71897 74099
" />
<path d="M72516 74849
L72436 74886
L72286 74886
L72216 74849
L72187 74774
L72225 74474
L72272 74399
L72352 74361
L72501 74361
L72572 74399
L72600 74474
L72591 74549
L72206 74624
" />
<path d="M72895 74811
L72928 74849
L72886 74886
L72853 74849
L72895 74811
L72886 74886
" />
<path d="M72947 74399
L72980 74436
L72937 74474
L72905 74436
L72947 74399
L72937 74474
" />
</g></g>
<g style="fill:#840000; fill-opacity:0.0; 
stroke:#840000; stroke-width:60.000000; stroke-opacity:1; 
stroke-linecap:round; stroke-linejoin:round;">
<text x="70079.606299" y="73408.346457"
textLength="11200.236220" font-size="787.401575" lengthAdjust="spacingAndGlyphs"
text-anchor="start" opacity="0">File: brkcan01.kicad_sch</text>
<g class="stroked-text"><desc>File: brkcan01.kicad_sch</desc>
<path d="M70447 73070
L70250 73070
" />
<path d="M70250 73380
L70250 72789
L70531 72789
" />
<path d="M70756 73380
L70756 72986
" />
<path d="M70756 72789
L70728 72817
L70756 72845
L70784 72817
L70756 72789
L70756 72845
" />
<path d="M71121 73380
L71065 73352
L71037 73295
L71037 72789
" />
<path d="M71571 73352
L71515 73380
L71403 73380
L71346 73352
L71318 73295
L71318 73070
L71346 73014
L71403 72986
L71515 72986
L71571 73014
L71600 73070
L71600 73127
L71318 73183
" />
<path d="M71853 73323
L71881 73352
L71853 73380
L71825 73352
L71853 73323
L71853 73380
" />
<path d="M71853 73014
L71881 73042
L71853 73070
L71825 73042
L71853 73014
L71853 73070
" />
<path d="M72584 73380
L72584 72789
" />
<path d="M72584 73014
L72640 72986
L72752 72986
L72809 73014
L72837 73042
L72865 73098
L72865 73267
L72837 73323
L72809 73352
L72752 73380
L72640 73380
L72584 73352
" />
<path d="M73118 73380
L73118 72986
" />
<path d="M73118 73098
L73146 73042
L73174 73014
L73231 72986
L73287 72986
" />
<path d="M73484 73380
L73484 72789
" />
<path d="M73540 73155
L73709 73380
" />
<path d="M73709 72986
L73484 73211
" />
<path d="M74215 73352
L74159 73380
L74046 73380
L73990 73352
L73962 73323
L73934 73267
L73934 73098
L73962 73042
L73990 73014
L74046 72986
L74159 72986
L74215 73014
" />
<path d="M74721 73380
L74721 73070
L74693 73014
L74637 72986
L74524 72986
L74468 73014
" />
<path d="M74721 73352
L74665 73380
L74524 73380
L74468 73352
L74440 73295
L74440 73239
L74468 73183
L74524 73155
L74665 73155
L74721 73127
" />
<path d="M75002 72986
L75002 73380
" />
<path d="M75002 73042
L75030 73014
L75087 72986
L75171 72986
L75227 73014
L75255 73070
L75255 73380
" />
<path d="M75649 72789
L75705 72789
L75762 72817
L75790 72845
L75818 72902
L75846 73014
L75846 73155
L75818 73267
L75790 73323
L75762 73352
L75705 73380
L75649 73380
L75593 73352
L75565 73323
L75537 73267
L75508 73155
L75508 73014
L75537 72902
L75565 72845
L75593 72817
L75649 72789
" />
<path d="M76408 73380
L76071 73380
" />
<path d="M76240 73380
L76240 72789
L76183 72874
L76127 72930
L76071 72958
" />
<path d="M76661 73323
L76690 73352
L76661 73380
L76633 73352
L76661 73323
L76661 73380
" />
<path d="M76943 73380
L76943 72789
" />
<path d="M76999 73155
L77168 73380
" />
<path d="M77168 72986
L76943 73211
" />
<path d="M77421 73380
L77421 72986
" />
<path d="M77421 72789
L77393 72817
L77421 72845
L77449 72817
L77421 72789
L77421 72845
" />
<path d="M77955 73352
L77899 73380
L77786 73380
L77730 73352
L77702 73323
L77674 73267
L77674 73098
L77702 73042
L77730 73014
L77786 72986
L77899 72986
L77955 73014
" />
<path d="M78461 73380
L78461 73070
L78433 73014
L78377 72986
L78264 72986
L78208 73014
" />
<path d="M78461 73352
L78405 73380
L78264 73380
L78208 73352
L78180 73295
L78180 73239
L78208 73183
L78264 73155
L78405 73155
L78461 73127
" />
<path d="M78995 73380
L78995 72789
" />
<path d="M78995 73352
L78939 73380
L78827 73380
L78771 73352
L78742 73323
L78714 73267
L78714 73098
L78742 73042
L78771 73014
L78827 72986
L78939 72986
L78995 73014
" />
<path d="M79136 73436
L79586 73436
" />
<path d="M79699 73352
L79755 73380
L79867 73380
L79923 73352
L79952 73295
L79952 73267
L79923 73211
L79867 73183
L79783 73183
L79727 73155
L79699 73098
L79699 73070
L79727 73014
L79783 72986
L79867 72986
L79923 73014
" />
<path d="M80458 73352
L80402 73380
L80289 73380
L80233 73352
L80205 73323
L80177 73267
L80177 73098
L80205 73042
L80233 73014
L80289 72986
L80402 72986
L80458 73014
" />
<path d="M80711 73380
L80711 72789
" />
<path d="M80964 73380
L80964 73070
L80936 73014
L80880 72986
L80795 72986
L80739 73014
L80711 73042
" />
</g><path d="M69685 71459
L112205 71459
" />
<text x="70079.606299" y="72345.354331"
textLength="3856.417323" font-size="787.401575" lengthAdjust="spacingAndGlyphs"
text-anchor="start" opacity="0">Sheet: /</text>
<g class="stroked-text"><desc>Sheet: /</desc>
<path d="M70222 72289
L70306 72317
L70447 72317
L70503 72289
L70531 72260
L70559 72204
L70559 72148
L70531 72092
L70503 72064
L70447 72035
L70334 72007
L70278 71979
L70250 71951
L70222 71895
L70222 71839
L70250 71782
L70278 71754
L70334 71726
L70475 71726
L70559 71754
" />
<path d="M70812 72317
L70812 71726
" />
<path d="M71065 72317
L71065 72007
L71037 71951
L70981 71923
L70897 71923
L70840 71951
L70812 71979
" />
<path d="M71571 72289
L71515 72317
L71403 72317
L71346 72289
L71318 72232
L71318 72007
L71346 71951
L71403 71923
L71515 71923
L71571 71951
L71600 72007
L71600 72064
L71318 72120
" />
<path d="M72078 72289
L72021 72317
L71909 72317
L71853 72289
L71825 72232
L71825 72007
L71853 71951
L71909 71923
L72021 71923
L72078 71951
L72106 72007
L72106 72064
L71825 72120
" />
<path d="M72274 71923
L72499 71923
" />
<path d="M72359 71726
L72359 72232
L72387 72289
L72443 72317
L72499 72317
" />
<path d="M72696 72260
L72724 72289
L72696 72317
L72668 72289
L72696 72260
L72696 72317
" />
<path d="M72696 71951
L72724 71979
L72696 72007
L72668 71979
L72696 71951
L72696 72007
" />
<path d="M73849 71698
L73343 72457
" />
</g></g>
<g style="fill:#840000; fill-opacity:0.0; 
stroke:#840000; stroke-width:118.110236; stroke-opacity:1; 
stroke-linecap:round; stroke-linejoin:round;">
<text x="70079.606299" y="71164.251969"
textLength="60.000000" font-size="787.401575" lengthAdjust="spacingAndGlyphs"
text-anchor="start" opacity="0"></text>
<g class="stroked-text"><desc></desc>
</g></g>
<g style="fill:#840000; fill-opacity:0.0; 
stroke:#840000; stroke-width:60.000000; stroke-opacity:1; 
stroke-linecap:round; stroke-linejoin:round;">
<text x="70079.606299" y="69983.149606"
textLength="118.110236" font-size="787.401575" lengthAdjust="spacingAndGlyphs"
text-anchor="start" opacity="0"></text>
<g class="stroked-text"><desc></desc>
</g><text x="70079.606299" y="68802.047244"
textLength="60.000000" font-size="787.401575" lengthAdjust="spacingAndGlyphs"
text-anchor="start" opacity="0"></text>
<g class="stroked-text"><desc></desc>
</g><text x="70079.606299" y="67620.944882"
textLength="60.000000" font-size="787.401575" lengthAdjust="spacingAndGlyphs"
text-anchor="start" opacity="0"></text>
<g class="stroked-text"><desc></desc>
</g><text x="70079.606299" y="66439.842520"
textLength="60.000000" font-size="787.401575" lengthAdjust="spacingAndGlyphs"
text-anchor="start" opacity="0"></text>
<g class="stroked-text"><desc></desc>
</g><path d="M77559 75396
L77559 76577
" />
<path d="M102756 75396
L102756 77955
" />
<g >
</g>
<g style="fill:#FFFFC2; fill-opacity:0.0; 
stroke:#FFFFC2; stroke-width:60.000000; stroke-opacity:1; 
stroke-linecap:round; stroke-linejoin:round;">
</g>
<g style="fill:#FFFFC2; fill-opacity:0.6; 
stroke:#FFFFC2; stroke-width:0.039370; stroke-opacity:1; 
stroke-linecap:round; stroke-linejoin:round;">
<rect x="64500.000000" y="37000.000000" width="1000.000000" height="4000.000000" rx="0.000000" />
</g>
<g style="fill:#840000; fill-opacity:0.6; 
stroke:#840000; stroke-width:0.039370; stroke-opacity:1; 
stroke-linecap:round; stroke-linejoin:round;">
</g>
<g style="fill:#840000; fill-opacity:0.0; 
stroke:#840000; stroke-width:100.000000; stroke-opacity:1; 
stroke-linecap:round; stroke-linejoin:round;">
<rect x="64500.000000" y="37000.000000" width="1000.000000" height="4000.000000" rx="0.000000" />
</g>
<g style="fill:#840000; fill-opacity:0.0; 
stroke:#840000; stroke-width:60.000000; stroke-opacity:1; 
stroke-linecap:round; stroke-linejoin:round;">
<rect x="64500.000000" y="40450.000000" width="500.000000" height="100.000000" rx="0.000000" />
<rect x="64500.000000" y="39450.000000" width="500.000000" height="100.000000" rx="0.000000" />
<rect x="64500.000000" y="38450.000000" width="500.000000" height="100.000000" rx="0.000000" />
<rect x="64500.000000" y="37450.000000" width="500.000000" height="100.000000" rx="0.000000" />
</g>
<g style="fill:#840000; fill-opacity:0.0; 
stroke:#840000; stroke-width:100.000000; stroke-opacity:1; 
stroke-linecap:round; stroke-linejoin:round;">
<rect x="64500.000000" y="37000.000000" width="1000.000000" height="4000.000000" rx="0.000000" />
</g>
<g style="fill:#840000; fill-opacity:0.0; 
stroke:#840000; stroke-width:60.000000; stroke-opacity:1; 
stroke-linecap:round; stroke-linejoin:round;">
<path d="M64500 37500
L63000 37500
" />
</g>
<g style="fill:#A90000; fill-opacity:0.0; 
stroke:#A90000; stroke-width:60.000000; stroke-opacity:1; 
stroke-linecap:round; stroke-linejoin:round;">
<text x="63750.000000" y="37400.000000"
textLength="536.181102" font-size="666.653543" lengthAdjust="spacingAndGlyphs"
text-anchor="middle" opacity="0">1</text>
<g class="stroked-text"><desc>1</desc>
<path d="M63892 37376
L63607 37376
" />
<path d="M63750 37376
L63750 36876
L63702 36947
L63654 36995
L63607 37019
" />
</g></g>
<g style="fill:#840000; fill-opacity:0.0; 
stroke:#840000; stroke-width:60.000000; stroke-opacity:1; 
stroke-linecap:round; stroke-linejoin:round;">
<path d="M64500 38500
L63000 38500
" />
</g>
<g style="fill:#A90000; fill-opacity:0.0; 
stroke:#A90000; stroke-width:60.000000; stroke-opacity:1; 
stroke-linecap:round; stroke-linejoin:round;">
<text x="63750.000000" y="38400.000000"
textLength="536.181102" font-size="666.653543" lengthAdjust="spacingAndGlyphs"
text-anchor="middle" opacity="0">2</text>
<g class="stroked-text"><desc>2</desc>
<path d="M63607 37923
L63630 37900
L63678 37876
L63797 37876
L63845 37900
L63869 37923
L63892 37971
L63892 38019
L63869 38090
L63583 38376
L63892 38376
" />
</g></g>
<g style="fill:#840000; fill-opacity:0.0; 
stroke:#840000; stroke-width:60.000000; stroke-opacity:1; 
stroke-linecap:round; stroke-linejoin:round;">
<path d="M64500 39500
L63000 39500
" />
</g>
<g style="fill:#A90000; fill-opacity:0.0; 
stroke:#A90000; stroke-width:60.000000; stroke-opacity:1; 
stroke-linecap:round; stroke-linejoin:round;">
<text x="63750.000000" y="39400.000000"
textLength="536.181102" font-size="666.653543" lengthAdjust="spacingAndGlyphs"
text-anchor="middle" opacity="0">3</text>
<g class="stroked-text"><desc>3</desc>
<path d="M63583 38876
L63892 38876
L63726 39066
L63797 39066
L63845 39090
L63869 39114
L63892 39161
L63892 39280
L63869 39328
L63845 39352
L63797 39376
L63654 39376
L63607 39352
L63583 39328
" />
</g></g>
<g style="fill:#840000; fill-opacity:0.0; 
stroke:#840000; stroke-width:60.000000; stroke-opacity:1; 
stroke-linecap:round; stroke-linejoin:round;">
<path d="M64500 40500
L63000 40500
" />
</g>
<g style="fill:#A90000; fill-opacity:0.0; 
stroke:#A90000; stroke-width:60.000000; stroke-opacity:1; 
stroke-linecap:round; stroke-linejoin:round;">
<text x="63750.000000" y="40400.000000"
textLength="536.181102" font-size="666.653543" lengthAdjust="spacingAndGlyphs"
text-anchor="middle" opacity="0">4</text>
<g class="stroked-text"><desc>4</desc>
<path d="M63845 40042
L63845 40376
" />
<path d="M63726 39852
L63607 40209
L63916 40209
" />
</g></g>
<g style="fill:#006464; fill-opacity:0.0; 
stroke:#006464; stroke-width:60.000000; stroke-opacity:1; 
stroke-linecap:round; stroke-linejoin:round;">
<text x="66459.803150" y="38749.921260"
textLength="917.125984" font-size="666.653543" lengthAdjust="spacingAndGlyphs"
text-anchor="middle" opacity="0">J2</text>
<g class="stroked-text"><desc>J2</desc>
<path d="M66293 38226
L66293 38583
L66269 38654
L66221 38702
L66150 38726
L66102 38726
" />
<path d="M66507 38273
L66531 38249
L66578 38226
L66697 38226
L66745 38249
L66769 38273
L66793 38321
L66793 38368
L66769 38440
L66483 38726
L66793 38726
" />
</g><text x="68305.078740" y="39749.921260"
textLength="4607.637795" font-size="666.653543" lengthAdjust="spacingAndGlyphs"
text-anchor="middle" opacity="0">Conn_01x04</text>
<g class="stroked-text"><desc>Conn_01x04</desc>
<path d="M66436 39678
L66412 39702
L66340 39726
L66293 39726
L66221 39702
L66174 39654
L66150 39607
L66126 39511
L66126 39440
L66150 39345
L66174 39297
L66221 39249
L66293 39226
L66340 39226
L66412 39249
L66436 39273
" />
<path d="M66721 39726
L66674 39702
L66650 39678
L66626 39630
L66626 39487
L66650 39440
L66674 39416
L66721 39392
L66793 39392
L66840 39416
L66864 39440
L66888 39487
L66888 39630
L66864 39678
L66840 39702
L66793 39726
L66721 39726
" />
<path d="M67102 39392
L67102 39726
" />
<path d="M67102 39440
L67126 39416
L67174 39392
L67245 39392
L67293 39416
L67316 39464
L67316 39726
" />
<path d="M67555 39392
L67555 39726
" />
<path d="M67555 39440
L67578 39416
L67626 39392
L67697 39392
L67745 39416
L67769 39464
L67769 39726
" />
<path d="M67888 39773
L68269 39773
" />
<path d="M68483 39226
L68531 39226
L68578 39249
L68602 39273
L68626 39321
L68650 39416
L68650 39535
L68626 39630
L68602 39678
L68578 39702
L68531 39726
L68483 39726
L68436 39702
L68412 39678
L68388 39630
L68364 39535
L68364 39416
L68388 39321
L68412 39273
L68436 39249
L68483 39226
" />
<path d="M69126 39726
L68840 39726
" />
<path d="M68983 39726
L68983 39226
L68936 39297
L68888 39345
L68840 39368
" />
<path d="M69293 39726
L69555 39392
" />
<path d="M69293 39392
L69555 39726
" />
<path d="M69840 39226
L69888 39226
L69936 39249
L69959 39273
L69983 39321
L70007 39416
L70007 39535
L69983 39630
L69959 39678
L69936 39702
L69888 39726
L69840 39726
L69793 39702
L69769 39678
L69745 39630
L69721 39535
L69721 39416
L69745 39321
L69769 39273
L69793 39249
L69840 39226
" />
<path d="M70436 39392
L70436 39726
" />
<path d="M70316 39202
L70197 39559
L70507 39559
" />
</g></g>
</g>
<g style="fill:#006464; fill-opacity:0.0; 
stroke:#006464; stroke-width:60.000000; stroke-opacity:1; 
stroke-linecap:round; stroke-linejoin:round;">
<g >
</g>
<g style="fill:#840000; fill-opacity:0.0; 
stroke:#840000; stroke-width:60.000000; stroke-opacity:1; 
stroke-linecap:round; stroke-linejoin:round;">
</g>
<g style="fill:#FFFFC2; fill-opacity:0.0; 
stroke:#FFFFC2; stroke-width:60.000000; stroke-opacity:1; 
stroke-linecap:round; stroke-linejoin:round;">
</g>
<g style="fill:#FFFFC2; fill-opacity:0.6; 
stroke:#FFFFC2; stroke-width:0.039370; stroke-opacity:1; 
stroke-linecap:round; stroke-linejoin:round;">
<rect x="53000.000000" y="36500.000000" width="6000.000000" height="5000.000000" rx="0.000000" />
</g>
<g style="fill:#840000; fill-opacity:0.6; 
stroke:#840000; stroke-width:0.039370; stroke-opacity:1; 
stroke-linecap:round; stroke-linejoin:round;">
</g>
<g style="fill:#840000; fill-opacity:0.0; 
stroke:#840000; stroke-width:100.000000; stroke-opacity:1; 
stroke-linecap:round; stroke-linejoin:round;">
<rect x="53000.000000" y="36500.000000" width="6000.000000" height="5000.000000" rx="0.000000" />
<rect x="53000.000000" y="36500.000000" width="6000.000000" height="5000.000000" rx="0.000000" />
</g>
<g style="fill:#840000; fill-opacity:0.0; 
stroke:#840000; stroke-width:60.000000; stroke-opacity:1; 
stroke-linecap:round; stroke-linejoin:round;">
<path d="M53000 37000
L52000 37000
" />
</g>
<g style="fill:#006464; fill-opacity:0.0; 
stroke:#006464; stroke-width:60.000000; stroke-opacity:1; 
stroke-linecap:round; stroke-linejoin:round;">
<text x="53400.000000" y="37250.000000"
textLength="560.000000" font-size="666.653543" lengthAdjust="spacingAndGlyphs"
text-anchor="start" opacity="0">D</text>
<g class="stroked-text"><desc>D</desc>
<path d="M53549 37226
L53549 36726
L53668 36726
L53739 36750
L53787 36797
L53810 36845
L53834 36940
L53834 37011
L53810 37107
L53787 37154
L53739 37202
L53668 37226
L53549 37226
" />
</g></g>
<g style="fill:#A90000; fill-opacity:0.0; 
stroke:#A90000; stroke-width:60.000000; stroke-opacity:1; 
stroke-linecap:round; stroke-linejoin:round;">
<text x="52500.000000" y="36900.000000"
textLength="536.181102" font-size="666.653543" lengthAdjust="spacingAndGlyphs"
text-anchor="middle" opacity="0">1</text>
<g class="stroked-text"><desc>1</desc>
<path d="M52642 36876
L52357 36876
" />
<path d="M52500 36876
L52500 36376
L52452 36447
L52404 36495
L52357 36519
" />
</g></g>
<g style="fill:#840000; fill-opacity:0.0; 
stroke:#840000; stroke-width:60.000000; stroke-opacity:1; 
stroke-linecap:round; stroke-linejoin:round;">
<path d="M53000 38000
L52000 38000
" />
</g>
<g style="fill:#006464; fill-opacity:0.0; 
stroke:#006464; stroke-width:60.000000; stroke-opacity:1; 
stroke-linecap:round; stroke-linejoin:round;">
<text x="53400.000000" y="38250.000000"
textLength="1583.818898" font-size="666.653543" lengthAdjust="spacingAndGlyphs"
text-anchor="start" opacity="0">GND</text>
<g class="stroked-text"><desc>GND</desc>
<path d="M53810 37750
L53763 37726
L53691 37726
L53620 37750
L53572 37797
L53549 37845
L53525 37940
L53525 38011
L53549 38107
L53572 38154
L53620 38202
L53691 38226
L53739 38226
L53810 38202
L53834 38178
L53834 38011
L53739 38011
" />
<path d="M54049 38226
L54049 37726
L54334 38226
L54334 37726
" />
<path d="M54572 38226
L54572 37726
L54691 37726
L54763 37750
L54810 37797
L54834 37845
L54858 37940
L54858 38011
L54834 38107
L54810 38154
L54763 38202
L54691 38226
L54572 38226
" />
</g></g>
<g style="fill:#A90000; fill-opacity:0.0; 
stroke:#A90000; stroke-width:60.000000; stroke-opacity:1; 
stroke-linecap:round; stroke-linejoin:round;">
<text x="52500.000000" y="37900.000000"
textLength="536.181102" font-size="666.653543" lengthAdjust="spacingAndGlyphs"
text-anchor="middle" opacity="0">2</text>
<g class="stroked-text"><desc>2</desc>
<path d="M52357 37423
L52380 37400
L52428 37376
L52547 37376
L52595 37400
L52619 37423
L52642 37471
L52642 37519
L52619 37590
L52333 37876
L52642 37876
" />
</g></g>
<g style="fill:#840000; fill-opacity:0.0; 
stroke:#840000; stroke-width:60.000000; stroke-opacity:1; 
stroke-linecap:round; stroke-linejoin:round;">
<path d="M53000 40000
L52000 40000
" />
</g>
<g style="fill:#006464; fill-opacity:0.0; 
stroke:#006464; stroke-width:60.000000; stroke-opacity:1; 
stroke-linecap:round; stroke-linejoin:round;">
<text x="53400.000000" y="40250.000000"
textLength="1488.582677" font-size="666.653543" lengthAdjust="spacingAndGlyphs"
text-anchor="start" opacity="0">VCC</text>
<g class="stroked-text"><desc>VCC</desc>
<path d="M53477 39726
L53644 40226
L53810 39726
" />
<path d="M54263 40178
L54239 40202
L54168 40226
L54120 40226
L54049 40202
L54001 40154
L53977 40107
L53953 40011
L53953 39940
L53977 39845
L54001 39797
L54049 39750
L54120 39726
L54168 39726
L54239 39750
L54263 39773
" />
<path d="M54763 40178
L54739 40202
L54668 40226
L54620 40226
L54549 40202
L54501 40154
L54477 40107
L54453 40011
L54453 39940
L54477 39845
L54501 39797
L54549 39750
L54620 39726
L54668 39726
L54739 39750
L54763 39773
" />
</g></g>
<g style="fill:#A90000; fill-opacity:0.0; 
stroke:#A90000; stroke-width:60.000000; stroke-opacity:1; 
stroke-linecap:round; stroke-linejoin:round;">
<text x="52500.000000" y="39900.000000"
textLength="536.181102" font-size="666.653543" lengthAdjust="spacingAndGlyphs"
text-anchor="middle" opacity="0">3</text>
<g class="stroked-text"><desc>3</desc>
<path d="M52333 39376
L52642 39376
L52476 39566
L52547 39566
L52595 39590
L52619 39614
L52642 39661
L52642 39780
L52619 39828
L52595 39852
L52547 39876
L52404 39876
L52357 39852
L52333 39828
" />
</g></g>
<g style="fill:#840000; fill-opacity:0.0; 
stroke:#840000; stroke-width:60.000000; stroke-opacity:1; 
stroke-linecap:round; stroke-linejoin:round;">
<path d="M53000 41000
L52000 41000
" />
</g>
<g style="fill:#006464; fill-opacity:0.0; 
stroke:#006464; stroke-width:60.000000; stroke-opacity:1; 
stroke-linecap:round; stroke-linejoin:round;">
<text x="53400.000000" y="41250.000000"
textLength="560.000000" font-size="666.653543" lengthAdjust="spacingAndGlyphs"
text-anchor="start" opacity="0">R</text>
<g class="stroked-text"><desc>R</desc>
<path d="M53834 41226
L53668 40988
" />
<path d="M53549 41226
L53549 40726
L53739 40726
L53787 40750
L53810 40773
L53834 40821
L53834 40892
L53810 40940
L53787 40964
L53739 40988
L53549 40988
" />
</g></g>
<g style="fill:#A90000; fill-opacity:0.0; 
stroke:#A90000; stroke-width:60.000000; stroke-opacity:1; 
stroke-linecap:round; stroke-linejoin:round;">
<text x="52500.000000" y="40900.000000"
textLength="536.181102" font-size="666.653543" lengthAdjust="spacingAndGlyphs"
text-anchor="middle" opacity="0">4</text>
<g class="stroked-text"><desc>4</desc>
<path d="M52595 40542
L52595 40876
" />
<path d="M52476 40352
L52357 40709
L52666 40709
" />
</g></g>
<g style="fill:#840000; fill-opacity:0.0; 
stroke:#840000; stroke-width:60.000000; stroke-opacity:1; 
stroke-linecap:round; stroke-linejoin:round;">
<path d="M59000 41000
L60000 41000
" />
</g>
<g style="fill:#006464; fill-opacity:0.0; 
stroke:#006464; stroke-width:60.000000; stroke-opacity:1; 
stroke-linecap:round; stroke-linejoin:round;">
<text x="58600.000000" y="41250.000000"
textLength="1917.125984" font-size="666.653543" lengthAdjust="spacingAndGlyphs"
text-anchor="end" opacity="0">CANL</text>
<g class="stroked-text"><desc>CANL</desc>
<path d="M57117 41178
L57093 41202
L57022 41226
L56974 41226
L56903 41202
L56855 41154
L56831 41107
L56808 41011
L56808 40940
L56831 40845
L56855 40797
L56903 40750
L56974 40726
L57022 40726
L57093 40750
L57117 40773
" />
<path d="M57308 41083
L57546 41083
" />
<path d="M57260 41226
L57427 40726
L57593 41226
" />
<path d="M57760 41226
L57760 40726
L58046 41226
L58046 40726
" />
<path d="M58522 41226
L58284 41226
L58284 40726
" />
</g></g>
<g style="fill:#A90000; fill-opacity:0.0; 
stroke:#A90000; stroke-width:60.000000; stroke-opacity:1; 
stroke-linecap:round; stroke-linejoin:round;">
<text x="59500.000000" y="40900.000000"
textLength="536.181102" font-size="666.653543" lengthAdjust="spacingAndGlyphs"
text-anchor="middle" opacity="0">6</text>
<g class="stroked-text"><desc>6</desc>
<path d="M59595 40376
L59500 40376
L59452 40400
L59428 40423
L59380 40495
L59357 40590
L59357 40780
L59380 40828
L59404 40852
L59452 40876
L59547 40876
L59595 40852
L59619 40828
L59642 40780
L59642 40661
L59619 40614
L59595 40590
L59547 40566
L59452 40566
L59404 40590
L59380 40614
L59357 40661
" />
</g></g>
<g style="fill:#840000; fill-opacity:0.0; 
stroke:#840000; stroke-width:60.000000; stroke-opacity:1; 
stroke-linecap:round; stroke-linejoin:round;">
<path d="M59000 37000
L60000 37000
" />
</g>
<g style="fill:#006464; fill-opacity:0.0; 
stroke:#006464; stroke-width:60.000000; stroke-opacity:1; 
stroke-linecap:round; stroke-linejoin:round;">
<text x="58600.000000" y="37250.000000"
textLength="2036.181102" font-size="666.653543" lengthAdjust="spacingAndGlyphs"
text-anchor="end" opacity="0">CANH</text>
<g class="stroked-text"><desc>CANH</desc>
<path d="M56998 37178
L56974 37202
L56903 37226
L56855 37226
L56784 37202
L56736 37154
L56712 37107
L56689 37011
L56689 36940
L56712 36845
L56736 36797
L56784 36750
L56855 36726
L56903 36726
L56974 36750
L56998 36773
" />
<path d="M57189 37083
L57427 37083
" />
<path d="M57141 37226
L57308 36726
L57474 37226
" />
<path d="M57641 37226
L57641 36726
L57927 37226
L57927 36726
" />
<path d="M58165 37226
L58165 36726
" />
<path d="M58165 36964
L58450 36964
" />
<path d="M58450 37226
L58450 36726
" />
</g></g>
<g style="fill:#A90000; fill-opacity:0.0; 
stroke:#A90000; stroke-width:60.000000; stroke-opacity:1; 
stroke-linecap:round; stroke-linejoin:round;">
<text x="59500.000000" y="36900.000000"
textLength="536.181102" font-size="666.653543" lengthAdjust="spacingAndGlyphs"
text-anchor="middle" opacity="0">7</text>
<g class="stroked-text"><desc>7</desc>
<path d="M59333 36376
L59666 36376
L59452 36876
" />
</g></g>
<g style="fill:#006464; fill-opacity:0.0; 
stroke:#006464; stroke-width:60.000000; stroke-opacity:1; 
stroke-linecap:round; stroke-linejoin:round;">
<text x="57326.299213" y="34749.960630"
textLength="1060.000000" font-size="666.653543" lengthAdjust="spacingAndGlyphs"
text-anchor="middle" opacity="0">U1</text>
<g class="stroked-text"><desc>U1</desc>
<path d="M56945 34226
L56945 34630
L56969 34678
L56992 34702
L57040 34726
L57135 34726
L57183 34702
L57207 34678
L57231 34630
L57231 34226
" />
<path d="M57731 34726
L57445 34726
" />
<path d="M57588 34726
L57588 34226
L57540 34297
L57492 34345
L57445 34368
" />
</g><text x="59242.952756" y="35749.960630"
textLength="4893.346457" font-size="666.653543" lengthAdjust="spacingAndGlyphs"
text-anchor="middle" opacity="0">SN65HVD232</text>
<g class="stroked-text"><desc>SN65HVD232</desc>
<path d="M56921 35702
L56992 35726
L57111 35726
L57159 35702
L57183 35678
L57207 35630
L57207 35583
L57183 35535
L57159 35511
L57111 35488
L57016 35464
L56969 35440
L56945 35416
L56921 35368
L56921 35321
L56945 35273
L56969 35249
L57016 35226
L57135 35226
L57207 35249
" />
<path d="M57421 35726
L57421 35226
L57707 35726
L57707 35226
" />
<path d="M58159 35226
L58064 35226
L58016 35249
L57992 35273
L57945 35345
L57921 35440
L57921 35630
L57945 35678
L57969 35702
L58016 35726
L58111 35726
L58159 35702
L58183 35678
L58207 35630
L58207 35511
L58183 35464
L58159 35440
L58111 35416
L58016 35416
L57969 35440
L57945 35464
L57921 35511
" />
<path d="M58659 35226
L58421 35226
L58397 35464
L58421 35440
L58469 35416
L58588 35416
L58635 35440
L58659 35464
L58683 35511
L58683 35630
L58659 35678
L58635 35702
L58588 35726
L58469 35726
L58421 35702
L58397 35678
" />
<path d="M58897 35726
L58897 35226
" />
<path d="M58897 35464
L59183 35464
" />
<path d="M59183 35726
L59183 35226
" />
<path d="M59350 35226
L59516 35726
L59683 35226
" />
<path d="M59850 35726
L59850 35226
L59969 35226
L60040 35249
L60088 35297
L60111 35345
L60135 35440
L60135 35511
L60111 35607
L60088 35654
L60040 35702
L59969 35726
L59850 35726
" />
<path d="M60326 35273
L60350 35249
L60397 35226
L60516 35226
L60564 35249
L60588 35273
L60611 35321
L60611 35368
L60588 35440
L60302 35726
L60611 35726
" />
<path d="M60778 35226
L61088 35226
L60921 35416
L60992 35416
L61040 35440
L61064 35464
L61088 35511
L61088 35630
L61064 35678
L61040 35702
L60992 35726
L60850 35726
L60802 35702
L60778 35678
" />
<path d="M61278 35273
L61302 35249
L61350 35226
L61469 35226
L61516 35249
L61540 35273
L61564 35321
L61564 35368
L61540 35440
L61254 35726
L61564 35726
" />
</g></g>
</g>
<g style="fill:#006464; fill-opacity:0.0; 
stroke:#006464; stroke-width:60.000000; stroke-opacity:1; 
stroke-linecap:round; stroke-linejoin:round;">
<g >
</g>
<g style="fill:#840000; fill-opacity:0.0; 
stroke:#840000; stroke-width:60.000000; stroke-opacity:1; 
stroke-linecap:round; stroke-linejoin:round;">
</g>
<g style="fill:#FFFFC2; fill-opacity:0.0; 
stroke:#FFFFC2; stroke-width:60.000000; stroke-opacity:1; 
stroke-linecap:round; stroke-linejoin:round;">
</g>
<g style="fill:#FFFFC2; fill-opacity:0.6; 
stroke:#FFFFC2; stroke-width:0.039370; stroke-opacity:1; 
stroke-linecap:round; stroke-linejoin:round;">
<rect x="46500.000000" y="37000.000000" width="1000.000000" height="4000.000000" rx="0.000000" />
</g>
<g style="fill:#840000; fill-opacity:0.6; 
stroke:#840000; stroke-width:0.039370; stroke-opacity:1; 
stroke-linecap:round; stroke-linejoin:round;">
</g>
<g style="fill:#840000; fill-opacity:0.0; 
stroke:#840000; stroke-width:100.000000; stroke-opacity:1; 
stroke-linecap:round; stroke-linejoin:round;">
<rect x="46500.000000" y="37000.000000" width="1000.000000" height="4000.000000" rx="0.000000" />
</g>
<g style="fill:#840000; fill-opacity:0.0; 
stroke:#840000; stroke-width:60.000000; stroke-opacity:1; 
stroke-linecap:round; stroke-linejoin:round;">
<rect x="47000.000000" y="40450.000000" width="500.000000" height="100.000000" rx="0.000000" />
<rect x="47000.000000" y="39450.000000" width="500.000000" height="100.000000" rx="0.000000" />
<rect x="47000.000000" y="38450.000000" width="500.000000" height="100.000000" rx="0.000000" />
<rect x="47000.000000" y="37450.000000" width="500.000000" height="100.000000" rx="0.000000" />
</g>
<g style="fill:#840000; fill-opacity:0.0; 
stroke:#840000; stroke-width:100.000000; stroke-opacity:1; 
stroke-linecap:round; stroke-linejoin:round;">
<rect x="46500.000000" y="37000.000000" width="1000.000000" height="4000.000000" rx="0.000000" />
</g>
<g style="fill:#840000; fill-opacity:0.0; 
stroke:#840000; stroke-width:60.000000; stroke-opacity:1; 
stroke-linecap:round; stroke-linejoin:round;">
<path d="M47500 37500
L49000 37500
" />
</g>
<g style="fill:#A90000; fill-opacity:0.0; 
stroke:#A90000; stroke-width:60.000000; stroke-opacity:1; 
stroke-linecap:round; stroke-linejoin:round;">
<text x="48250.000000" y="37400.000000"
textLength="536.181102" font-size="666.653543" lengthAdjust="spacingAndGlyphs"
text-anchor="middle" opacity="0">1</text>
<g class="stroked-text"><desc>1</desc>
<path d="M48392 37376
L48107 37376
" />
<path d="M48250 37376
L48250 36876
L48202 36947
L48154 36995
L48107 37019
" />
</g></g>
<g style="fill:#840000; fill-opacity:0.0; 
stroke:#840000; stroke-width:60.000000; stroke-opacity:1; 
stroke-linecap:round; stroke-linejoin:round;">
<path d="M47500 38500
L49000 38500
" />
</g>
<g style="fill:#A90000; fill-opacity:0.0; 
stroke:#A90000; stroke-width:60.000000; stroke-opacity:1; 
stroke-linecap:round; stroke-linejoin:round;">
<text x="48250.000000" y="38400.000000"
textLength="536.181102" font-size="666.653543" lengthAdjust="spacingAndGlyphs"
text-anchor="middle" opacity="0">2</text>
<g class="stroked-text"><desc>2</desc>
<path d="M48107 37923
L48130 37900
L48178 37876
L48297 37876
L48345 37900
L48369 37923
L48392 37971
L48392 38019
L48369 38090
L48083 38376
L48392 38376
" />
</g></g>
<g style="fill:#840000; fill-opacity:0.0; 
stroke:#840000; stroke-width:60.000000; stroke-opacity:1; 
stroke-linecap:round; stroke-linejoin:round;">
<path d="M47500 39500
L49000 39500
" />
</g>
<g style="fill:#A90000; fill-opacity:0.0; 
stroke:#A90000; stroke-width:60.000000; stroke-opacity:1; 
stroke-linecap:round; stroke-linejoin:round;">
<text x="48250.000000" y="39400.000000"
textLength="536.181102" font-size="666.653543" lengthAdjust="spacingAndGlyphs"
text-anchor="middle" opacity="0">3</text>
<g class="stroked-text"><desc>3</desc>
<path d="M48083 38876
L48392 38876
L48226 39066
L48297 39066
L48345 39090
L48369 39114
L48392 39161
L48392 39280
L48369 39328
L48345 39352
L48297 39376
L48154 39376
L48107 39352
L48083 39328
" />
</g></g>
<g style="fill:#840000; fill-opacity:0.0; 
stroke:#840000; stroke-width:60.000000; stroke-opacity:1; 
stroke-linecap:round; stroke-linejoin:round;">
<path d="M47500 40500
L49000 40500
" />
</g>
<g style="fill:#A90000; fill-opacity:0.0; 
stroke:#A90000; stroke-width:60.000000; stroke-opacity:1; 
stroke-linecap:round; stroke-linejoin:round;">
<text x="48250.000000" y="40400.000000"
textLength="536.181102" font-size="666.653543" lengthAdjust="spacingAndGlyphs"
text-anchor="middle" opacity="0">4</text>
<g class="stroked-text"><desc>4</desc>
<path d="M48345 40042
L48345 40376
" />
<path d="M48226 39852
L48107 40209
L48416 40209
" />
</g></g>
<g style="fill:#006464; fill-opacity:0.0; 
stroke:#006464; stroke-width:60.000000; stroke-opacity:1; 
stroke-linecap:round; stroke-linejoin:round;">
<text x="46999.960630" y="35249.960630"
textLength="917.125984" font-size="666.653543" lengthAdjust="spacingAndGlyphs"
text-anchor="middle" opacity="0">J1</text>
<g class="stroked-text"><desc>J1</desc>
<path d="M46833 34726
L46833 35083
L46809 35154
L46761 35202
L46690 35226
L46642 35226
" />
<path d="M47333 35226
L47047 35226
" />
<path d="M47190 35226
L47190 34726
L47142 34797
L47095 34845
L47047 34868
" />
</g><text x="47000.000000" y="36249.960630"
textLength="4607.637795" font-size="666.653543" lengthAdjust="spacingAndGlyphs"
text-anchor="middle" opacity="0">Conn_01x04</text>
<g class="stroked-text"><desc>Conn_01x04</desc>
<path d="M45130 36178
L45107 36202
L45035 36226
L44988 36226
L44916 36202
L44869 36154
L44845 36107
L44821 36011
L44821 35940
L44845 35845
L44869 35797
L44916 35749
L44988 35726
L45035 35726
L45107 35749
L45130 35773
" />
<path d="M45416 36226
L45369 36202
L45345 36178
L45321 36130
L45321 35988
L45345 35940
L45369 35916
L45416 35892
L45488 35892
L45535 35916
L45559 35940
L45583 35988
L45583 36130
L45559 36178
L45535 36202
L45488 36226
L45416 36226
" />
<path d="M45797 35892
L45797 36226
" />
<path d="M45797 35940
L45821 35916
L45869 35892
L45940 35892
L45988 35916
L46011 35964
L46011 36226
" />
<path d="M46250 35892
L46250 36226
" />
<path d="M46250 35940
L46273 35916
L46321 35892
L46392 35892
L46440 35916
L46464 35964
L46464 36226
" />
<path d="M46583 36273
L46964 36273
" />
<path d="M47178 35726
L47226 35726
L47273 35749
L47297 35773
L47321 35821
L47345 35916
L47345 36035
L47321 36130
L47297 36178
L47273 36202
L47226 36226
L47178 36226
L47130 36202
L47107 36178
L47083 36130
L47059 36035
L47059 35916
L47083 35821
L47107 35773
L47130 35749
L47178 35726
" />
<path d="M47821 36226
L47535 36226
" />
<path d="M47678 36226
L47678 35726
L47630 35797
L47583 35845
L47535 35868
" />
<path d="M47988 36226
L48250 35892
" />
<path d="M47988 35892
L48250 36226
" />
<path d="M48535 35726
L48583 35726
L48630 35749
L48654 35773
L48678 35821
L48702 35916
L48702 36035
L48678 36130
L48654 36178
L48630 36202
L48583 36226
L48535 36226
L48488 36202
L48464 36178
L48440 36130
L48416 36035
L48416 35916
L48440 35821
L48464 35773
L48488 35749
L48535 35726
" />
<path d="M49130 35892
L49130 36226
" />
<path d="M49011 35702
L48892 36059
L49202 36059
" />
</g></g>
</g>
<g style="fill:#006464; fill-opacity:0.0; 
stroke:#006464; stroke-width:60.000000; stroke-opacity:1; 
stroke-linecap:round; stroke-linejoin:round;">
</g>
<g style="fill:#009600; fill-opacity:0.0; 
stroke:#009600; stroke-width:60.000000; stroke-opacity:1; 
stroke-linecap:round; stroke-linejoin:round;">
<path d="M49000 38500
L49500 38500
" />
<path d="M60500 40500
L63000 40500
" />
<path d="M60500 37500
L63000 37500
" />
<path d="M49500 41000
L52000 41000
" />
<path d="M49000 40500
L49500 40500
" />
<path d="M49500 40500
L49500 41000
" />
<path d="M49000 39500
L49500 39500
" />
<path d="M49500 40000
L52000 40000
" />
<path d="M60500 41000
L60500 40500
" />
<path d="M49000 37500
L49500 37500
" />
<path d="M49500 37000
L52000 37000
" />
<path d="M49500 39500
L49500 40000
" />
<path d="M49500 38000
L52000 38000
" />
<path d="M49500 38500
L49500 38000
" />
<path d="M49500 37500
L49500 37000
" />
<path d="M60000 41000
L60500 41000
" />
<path d="M60500 37000
L60500 37500
" />
<path d="M60000 37000
L60500 37000
" />
</g>
<g style="fill:#000084; fill-opacity:0.0; 
stroke:#000084; stroke-width:60.000000; stroke-opacity:1; 
stroke-linecap:round; stroke-linejoin:round;">
<path d="M62760 38260
L63240 38740
" />
<path d="M63240 38260
L62760 38740
" />
<path d="M62760 39260
L63240 39740
" />
<path d="M63240 39260
L62760 39740
" />
</g> 
</svg>
